# xmcd
#
# Track frame offsets:
#	150
#	11430
#	19687
#	30115
#	40952
#	53085
#	66415
#	82992
#	93345
#	102927
#	118370
#	129675
#
# Disc length: 1771 seconds
#
# Revision: 1
# Processed by: cddbd v1.5.2PL0 Copyright (c) Steve Scherf et al.
# Submitted via: EZCDAudioConverter 5.0.3.4
#
DISCID=9306e90c
DTITLE=Gene Tracy - The Sophisticated Truck Driver
DYEAR=1996
DGENRE=Comedy - Adult Comedy
TTITLE0=Intro - Drunk Truck Driver - Fever Blister
TTITLE1=Harry's Son
TTITLE2=Granny In Paris - Granny's Whore House
TTITLE3=Truck Drivers Convention - The Couple in the Road
TTITLE4=The Split
TTITLE5=Brewster the Rooster
TTITLE6=The Mean Truck Driver - Fairy God Mother - Ship-Wrecked
TTITLE7=The Camel
TTITLE8=E T W N C
TTITLE9=Harold Brown the Road Commissioner
TTITLE10=The Hump Back Bartender - Give me a Bottle of Gin
TTITLE11=Mary Kate
EXTD=
EXTT0=
EXTT1=
EXTT2=
EXTT3=
EXTT4=
EXTT5=
EXTT6=
EXTT7=
EXTT8=
EXTT9=
EXTT10=
EXTT11=
PLAYORDER=
